<svg aria-hidden="true" style="position: absolute; width: 0; height: 0; overflow: hidden;" version="1.1" xmlns="http://www.w3.org/2000/svg" xmlns:xlink="http://www.w3.org/1999/xlink">
<defs>
<symbol id="icon-information-solid" viewBox="0 0 20 20">
<path d="M2.93 17.070c-1.884-1.821-3.053-4.37-3.053-7.193 0-5.523 4.477-10 10-10 2.823 0 5.372 1.169 7.19 3.050l0.003 0.003c1.737 1.796 2.807 4.247 2.807 6.947 0 5.523-4.477 10-10 10-2.7 0-5.151-1.070-6.95-2.81l0.003 0.003zM9 11v4h2v-6h-2v2zM9 5v2h2v-2h-2z"></path>
</symbol>
<symbol id="icon-discord" viewBox="0 0 32 32">
<path d="M26.963 0c1.875 0 3.387 1.516 3.476 3.3v28.7l-3.569-3.031-1.96-1.784-2.139-1.864 0.893 2.94h-18.717c-1.869 0-3.387-1.42-3.387-3.301v-21.653c0-1.784 1.52-3.303 3.393-3.303h22zM18.805 7.577h-0.040l-0.269 0.267c2.764 0.8 4.101 2.049 4.101 2.049-1.781-0.891-3.387-1.336-4.992-1.516-1.16-0.18-2.32-0.085-3.3 0h-0.267c-0.627 0-1.96 0.267-3.747 0.98-0.623 0.271-0.98 0.448-0.98 0.448s1.336-1.336 4.28-2.049l-0.18-0.18c0 0-2.229-0.085-4.636 1.693 0 0-2.407 4.192-2.407 9.36 0 0 1.333 2.32 4.991 2.408 0 0 0.533-0.711 1.073-1.336-2.053-0.624-2.853-1.872-2.853-1.872s0.179 0.088 0.447 0.267h0.080c0.040 0 0.059 0.020 0.080 0.040v0.008c0.021 0.021 0.040 0.040 0.080 0.040 0.44 0.181 0.88 0.36 1.24 0.533 0.621 0.269 1.42 0.537 2.4 0.715 1.24 0.18 2.661 0.267 4.28 0 0.8-0.18 1.6-0.356 2.4-0.713 0.52-0.267 1.16-0.533 1.863-0.983 0 0-0.8 1.248-2.94 1.872 0.44 0.621 1.060 1.333 1.060 1.333 3.659-0.080 5.080-2.4 5.16-2.301 0-5.16-2.42-9.36-2.42-9.36-2.18-1.619-4.22-1.68-4.58-1.68zM19.029 13.461c0.937 0 1.693 0.8 1.693 1.78 0 0.987-0.76 1.787-1.693 1.787s-1.693-0.8-1.693-1.779c0.003-0.987 0.764-1.784 1.693-1.788zM12.972 13.461c0.933 0 1.688 0.8 1.688 1.78 0 0.987-0.76 1.787-1.693 1.787s-1.693-0.8-1.693-1.779c0-0.987 0.76-1.784 1.699-1.788z"></path>
</symbol>
<symbol id="icon-envelope-o" viewBox="0 0 28 28">
<path d="M26 23.5v-12c-0.328 0.375-0.688 0.719-1.078 1.031-2.234 1.719-4.484 3.469-6.656 5.281-1.172 0.984-2.625 2.188-4.25 2.188h-0.031c-1.625 0-3.078-1.203-4.25-2.188-2.172-1.813-4.422-3.563-6.656-5.281-0.391-0.313-0.75-0.656-1.078-1.031v12c0 0.266 0.234 0.5 0.5 0.5h23c0.266 0 0.5-0.234 0.5-0.5zM26 7.078c0-0.391 0.094-1.078-0.5-1.078h-23c-0.266 0-0.5 0.234-0.5 0.5 0 1.781 0.891 3.328 2.297 4.438 2.094 1.641 4.188 3.297 6.266 4.953 0.828 0.672 2.328 2.109 3.422 2.109h0.031c1.094 0 2.594-1.437 3.422-2.109 2.078-1.656 4.172-3.313 6.266-4.953 1.016-0.797 2.297-2.531 2.297-3.859zM28 6.5v17c0 1.375-1.125 2.5-2.5 2.5h-23c-1.375 0-2.5-1.125-2.5-2.5v-17c0-1.375 1.125-2.5 2.5-2.5h23c1.375 0 2.5 1.125 2.5 2.5z"></path>
</symbol>
<symbol id="icon-pie-chart" viewBox="0 0 27 28">
<path d="M12 13.906l8.531 8.531c-2.172 2.203-5.203 3.563-8.531 3.563-6.625 0-12-5.375-12-12s5.375-12 12-12v11.906zM14.922 14h12.078c0 3.328-1.359 6.359-3.563 8.531zM26 12h-12v-12c6.625 0 12 5.375 12 12z"></path>
</symbol>
<symbol id="icon-dropbox" viewBox="0 0 28 28">
<path d="M6.281 11.047l7.719 4.766-5.344 4.453-7.656-4.984zM21.688 19.719v1.687l-7.656 4.578v0.016l-0.016-0.016-0.016 0.016v-0.016l-7.641-4.578v-1.687l2.297 1.5 5.344-4.438v-0.031l0.016 0.016 0.016-0.016v0.031l5.359 4.438zM8.656 1.844l5.344 4.453-7.719 4.75-5.281-4.219zM21.719 11.047l5.281 4.234-7.641 4.984-5.359-4.453zM19.359 1.844l7.641 4.984-5.281 4.219-7.719-4.75z"></path>
</symbol>
<symbol id="icon-plus-circle" viewBox="0 0 24 28">
<path d="M19 15v-2c0-0.547-0.453-1-1-1h-4v-4c0-0.547-0.453-1-1-1h-2c-0.547 0-1 0.453-1 1v4h-4c-0.547 0-1 0.453-1 1v2c0 0.547 0.453 1 1 1h4v4c0 0.547 0.453 1 1 1h2c0.547 0 1-0.453 1-1v-4h4c0.547 0 1-0.453 1-1zM24 14c0 6.625-5.375 12-12 12s-12-5.375-12-12 5.375-12 12-12 12 5.375 12 12z"></path>
</symbol>
<symbol id="icon-line-chart" viewBox="0 0 32 28">
<path d="M32 24v2h-32v-24h2v22h30zM30 4.5v6.797c0 0.438-0.531 0.672-0.859 0.344l-1.891-1.891-9.891 9.891c-0.203 0.203-0.516 0.203-0.719 0l-3.641-3.641-6.5 6.5-3-3 9.141-9.141c0.203-0.203 0.516-0.203 0.719 0l3.641 3.641 7.25-7.25-1.891-1.891c-0.328-0.328-0.094-0.859 0.344-0.859h6.797c0.281 0 0.5 0.219 0.5 0.5z"></path>
</symbol>
<symbol id="icon-hourglass-3" viewBox="0 0 24 28">
<path d="M22 2c0 5.781-2.766 9.969-5.828 12 3.063 2.031 5.828 6.219 5.828 12h1.5c0.281 0 0.5 0.219 0.5 0.5v1c0 0.281-0.219 0.5-0.5 0.5h-23c-0.281 0-0.5-0.219-0.5-0.5v-1c0-0.281 0.219-0.5 0.5-0.5h1.5c0-5.781 2.766-9.969 5.828-12-3.063-2.031-5.828-6.219-5.828-12h-1.5c-0.281 0-0.5-0.219-0.5-0.5v-1c0-0.281 0.219-0.5 0.5-0.5h23c0.281 0 0.5 0.219 0.5 0.5v1c0 0.281-0.219 0.5-0.5 0.5h-1.5zM13.656 13.062c3.156-1.188 6.344-5.359 6.344-11.062h-16c0 5.703 3.187 9.875 6.344 11.062 0.391 0.141 0.656 0.516 0.656 0.938s-0.266 0.797-0.656 0.938c-1.344 0.5-2.703 1.563-3.813 3.063h10.938c-1.109-1.5-2.469-2.562-3.813-3.063-0.391-0.141-0.656-0.516-0.656-0.938s0.266-0.797 0.656-0.938z"></path>
</symbol>
<symbol id="icon-search-plus" viewBox="0 0 26 28">
<path d="M16 12.5v1c0 0.266-0.234 0.5-0.5 0.5h-3.5v3.5c0 0.266-0.234 0.5-0.5 0.5h-1c-0.266 0-0.5-0.234-0.5-0.5v-3.5h-3.5c-0.266 0-0.5-0.234-0.5-0.5v-1c0-0.266 0.234-0.5 0.5-0.5h3.5v-3.5c0-0.266 0.234-0.5 0.5-0.5h1c0.266 0 0.5 0.234 0.5 0.5v3.5h3.5c0.266 0 0.5 0.234 0.5 0.5zM18 13c0-3.859-3.141-7-7-7s-7 3.141-7 7 3.141 7 7 7 7-3.141 7-7zM26 26c0 1.109-0.891 2-2 2-0.531 0-1.047-0.219-1.406-0.594l-5.359-5.344c-1.828 1.266-4.016 1.937-6.234 1.937-6.078 0-11-4.922-11-11s4.922-11 11-11 11 4.922 11 11c0 2.219-0.672 4.406-1.937 6.234l5.359 5.359c0.359 0.359 0.578 0.875 0.578 1.406z"></path>
</symbol>
<symbol id="icon-binoculars" viewBox="0 0 28 28">
<path d="M11 5v12c0 0.547-0.453 1-1 1v0 9c0 0.547-0.453 1-1 1h-8c-0.547 0-1-0.453-1-1v-8l3.891-13.641c0.063-0.219 0.266-0.359 0.484-0.359h6.625zM16 5v11h-4v-11h4zM28 19v8c0 0.547-0.453 1-1 1h-8c-0.547 0-1-0.453-1-1v-9c-0.547 0-1-0.453-1-1v-12h6.625c0.219 0 0.422 0.141 0.484 0.359zM11.5 0.5v3.5h-5.5v-3.5c0-0.281 0.219-0.5 0.5-0.5h4.5c0.281 0 0.5 0.219 0.5 0.5zM22 0.5v3.5h-5.5v-3.5c0-0.281 0.219-0.5 0.5-0.5h4.5c0.281 0 0.5 0.219 0.5 0.5z"></path>
</symbol>
<symbol id="icon-thumbs-o-up" viewBox="0 0 24 28">
<path d="M4 21c0-0.547-0.453-1-1-1s-1 0.453-1 1 0.453 1 1 1 1-0.453 1-1zM22 12c0-1.062-0.953-2-2-2h-5.5c0-1.828 1.5-3.156 1.5-5 0-1.828-0.359-3-2.5-3-1 1.016-0.484 3.406-2 5-0.438 0.453-0.812 0.938-1.203 1.422-0.703 0.906-2.562 3.578-3.797 3.578h-0.5v10h0.5c0.875 0 2.312 0.562 3.156 0.859 1.719 0.594 3.5 1.141 5.344 1.141h1.891c1.766 0 3-0.703 3-2.609 0-0.297-0.031-0.594-0.078-0.875 0.656-0.359 1.016-1.25 1.016-1.969 0-0.375-0.094-0.75-0.281-1.078 0.531-0.5 0.828-1.125 0.828-1.859 0-0.5-0.219-1.234-0.547-1.609 0.734-0.016 1.172-1.422 1.172-2zM24 11.984c0 0.906-0.266 1.797-0.766 2.547 0.094 0.344 0.141 0.719 0.141 1.078 0 0.781-0.203 1.563-0.594 2.25 0.031 0.219 0.047 0.453 0.047 0.672 0 1-0.328 2-0.938 2.781 0.031 2.953-1.984 4.688-4.875 4.688h-2.016c-2.219 0-4.281-0.656-6.344-1.375-0.453-0.156-1.719-0.625-2.156-0.625h-4.5c-1.109 0-2-0.891-2-2v-10c0-1.109 0.891-2 2-2h4.281c0.609-0.406 1.672-1.813 2.141-2.422 0.531-0.688 1.078-1.359 1.672-2 0.938-1 0.438-3.469 2-5 0.375-0.359 0.875-0.578 1.406-0.578 1.625 0 3.187 0.578 3.953 2.094 0.484 0.953 0.547 1.859 0.547 2.906 0 1.094-0.281 2.031-0.75 3h2.75c2.156 0 4 1.828 4 3.984z"></path>
</symbol>
<symbol id="icon-mic" viewBox="0 0 32 32">
<path d="M15 22c2.761 0 5-2.239 5-5v-12c0-2.761-2.239-5-5-5s-5 2.239-5 5v12c0 2.761 2.239 5 5 5zM22 14v3c0 3.866-3.134 7-7 7s-7-3.134-7-7v-3h-2v3c0 4.632 3.5 8.447 8 8.944v4.056h-4v2h10v-2h-4v-4.056c4.5-0.497 8-4.312 8-8.944v-3h-2z"></path>
</symbol>
<symbol id="icon-clock2" viewBox="0 0 32 32">
<path d="M16 0c-8.837 0-16 7.163-16 16s7.163 16 16 16 16-7.163 16-16-7.163-16-16-16zM20.586 23.414l-6.586-6.586v-8.828h4v7.172l5.414 5.414-2.829 2.829z"></path>
</symbol>
<symbol id="icon-display" viewBox="0 0 32 32">
<path d="M0 2v20h32v-20h-32zM30 20h-28v-16h28v16zM21 24h-10l-1 4-2 2h16l-2-2z"></path>
</symbol>
<symbol id="icon-truck" viewBox="0 0 32 32">
<path d="M32 18l-4-8h-6v-4c0-1.1-0.9-2-2-2h-18c-1.1 0-2 0.9-2 2v16l2 2h2.536c-0.341 0.588-0.536 1.271-0.536 2 0 2.209 1.791 4 4 4s4-1.791 4-4c0-0.729-0.196-1.412-0.536-2h11.073c-0.341 0.588-0.537 1.271-0.537 2 0 2.209 1.791 4 4 4s4-1.791 4-4c0-0.729-0.196-1.412-0.537-2h2.537v-6zM22 18v-6h4.146l3 6h-7.146z"></path>
</symbol>
</defs>
</svg>
